<svg width="60" height="16" viewBox="0 0 60 16" fill="none" xmlns="http://www.w3.org/2000/svg">
<path fill-rule="evenodd" clip-rule="evenodd" d="M9.20761 12.1162H6.59485C2.51894 12.1162 5.48008 3.86722 8.91151 3.86722H13.0397C13.7016 3.86722 14.8686 3.98342 15.4434 2.42324L16.3318 0H10.6708C7.60515 0 5.21878 1.02905 3.49437 2.75519C0.515814 5.70954 -0.494454 10.3237 0.219703 12.5311C0.899022 14.5726 2.74538 15.917 5.63683 15.9502L7.88383 15.9668H10.6533L11.3327 14.0249C11.8378 12.6473 10.7056 12.1162 9.20761 12.1162ZM41.0137 8.69709L41.8671 6.0581H32.7574C31.242 6.0581 30.5626 6.45644 30.3014 7.28629L29.4479 9.92531H38.5577C40.0731 9.92531 40.7524 9.52697 41.0137 8.69709ZM28.0892 13.3444L27.2357 15.9834H36.3456C37.8436 15.9834 38.5403 15.5851 38.8016 14.7552L39.6551 12.1162H30.5453C29.0473 12.1162 28.3679 12.5145 28.0892 13.3444ZM43.1387 2.6556L43.9924 0.0165973H34.8824C33.367 0.0165973 32.6877 0.414937 32.4264 1.24481L31.5729 3.88382H40.6828C42.181 3.88382 42.86 3.48548 43.1387 2.6556ZM29.3782 3.18673C28.995 0.730292 27.6189 0.0165973 24.2746 0.0165973H18.1781L14.6248 9.92531H16.8717C18.213 9.92531 18.8923 9.94192 19.6064 8.11618L21.087 3.86722H23.3514C25.2849 3.86722 24.8494 6.17429 23.874 8.41494C23.0031 10.39 21.4876 12.1328 19.6587 12.1328H15.8789C14.3635 12.1328 13.6668 12.5311 13.388 13.361L12.4474 16H15.217L17.9343 15.9834C20.338 15.9668 22.3063 15.8008 24.6055 13.8257C27.0441 11.7178 29.8659 6.30705 29.3782 3.18673ZM60 0H54.7222L49.7579 5.02904C49.1829 5.60995 48.5907 6.19086 48.0158 6.87139H47.9635L50.4369 0H46.1349L40.3344 15.9834H44.6368L46.483 10.9544L48.3989 9.41079L49.9146 13.9585C50.3847 15.3693 50.8728 15.9834 51.9179 15.9834H55.2099L51.8305 7.05395L60 0Z" fill="black"/>
</svg>
