<svg width="65" height="27" viewBox="0 0 65 27" fill="none" xmlns="http://www.w3.org/2000/svg">
<path fill-rule="evenodd" clip-rule="evenodd" d="M41.8247 21.3094C40.6415 21.636 39.1006 21.7721 37.7798 21.7721C34.3403 21.7721 32.084 20.0031 32.084 16.7647C32.084 13.6895 34.2027 11.7028 37.2845 11.7028C37.9724 11.7028 38.7154 11.7845 39.1556 12.0022V7.53906H41.8247V21.3094ZM39.1556 14.2882C38.7429 14.0977 38.165 13.9888 37.5046 13.9888C35.8812 13.9888 34.8081 14.9685 34.8081 16.683C34.8081 18.5063 35.9638 19.5405 37.8623 19.5405C38.1925 19.5405 38.7154 19.5405 39.1556 19.4316V14.2882ZM63.7555 21.3094C62.5723 21.636 61.0314 21.7721 59.6831 21.7721C56.271 21.7721 53.9871 20.0031 53.9871 16.7647C53.9871 13.6895 56.1059 11.7028 59.1878 11.7028C59.9032 11.7028 60.6186 11.7845 61.0589 12.0022V7.53906H63.7555V21.3094ZM61.0589 14.2882C60.6461 14.0977 60.0958 13.9888 59.4354 13.9888C57.7844 13.9888 56.7113 14.9685 56.7113 16.683C56.7113 18.5063 57.8945 19.5405 59.7931 19.5405C60.1233 19.5405 60.6186 19.5405 61.0589 19.4316V14.2882ZM46.0348 14.2882C46.4751 14.0977 47.1079 14.0432 47.6308 14.0432C49.2818 14.0432 50.4099 14.9685 50.4099 16.6286C50.4099 18.588 49.1442 19.4861 47.4657 19.5133V21.7721H47.6032C51.0703 21.7721 53.1341 19.8943 53.1341 16.547C53.1341 13.499 50.9328 11.7028 47.6858 11.7028C46.0348 11.7028 44.4113 12.0838 43.3382 12.5192V25.446H46.0348V14.2882Z" fill="black"/>
<path d="M15.966 12.6018C15.9076 12.6321 15.8424 12.648 15.7762 12.648C15.71 12.648 15.6448 12.6321 15.5864 12.6018L14.9723 12.2334C14.9179 12.2007 14.872 12.1562 14.8383 12.1034V12.0925C14.7989 12.0343 14.7758 11.967 14.7714 11.8975L14.749 11.1932C14.7501 11.1279 14.7681 11.064 14.8012 11.0072C14.8344 10.9504 14.8817 10.9026 14.9388 10.8681L22.4194 6.64236L11.9243 1.09467C11.7921 1.03237 11.647 1 11.5 1C11.353 1 11.2079 1.03237 11.0757 1.09467L0.580582 6.63152L12.3374 13.2736C12.3945 13.308 12.4418 13.3558 12.475 13.4126C12.5082 13.4694 12.5261 13.5334 12.5272 13.5986V23.2854C12.5261 23.3507 12.5082 23.4146 12.475 23.4714C12.4418 23.5282 12.3945 23.576 12.3374 23.6105L11.701 23.9355C11.6432 23.9682 11.578 23.9868 11.5112 23.9897H11.5C11.4303 23.992 11.3612 23.977 11.299 23.9464L10.6626 23.5996C10.6034 23.5665 10.5539 23.5193 10.5187 23.4624C10.4835 23.4055 10.4639 23.3409 10.4616 23.2746V14.6497C10.4575 14.6145 10.4453 14.5808 10.4259 14.5508C10.4066 14.5208 10.3807 14.4953 10.35 14.4763L0 8.63606V20.0998C0 20.349 0.189806 20.6741 0.413107 20.8041L11.0869 26.9044C11.215 26.9673 11.3565 27 11.5 27C11.6435 27 11.785 26.9673 11.9131 26.9044L22.5869 20.8041C22.8102 20.6633 23 20.349 23 20.0998V8.63606L15.966 12.6018Z" fill="black"/>
</svg>
