<svg width="45" height="27" viewBox="0 0 45 27" fill="none" xmlns="http://www.w3.org/2000/svg">
<mask id="mask0_734_34763" style="mask-type:luminance" maskUnits="userSpaceOnUse" x="0" y="0" width="45" height="27">
<path d="M44.6518 0H0.348633V27H44.6518V0Z" fill="white"/>
</mask>
<g mask="url(#mask0_734_34763)">
<path d="M7.81026 0.199219V12.2946H5.79436V1.9398H2.36453V12.2946H0.348633V0.199219H7.81026Z" fill="black"/>
<path d="M11.4508 11.818C10.8469 11.2634 10.4077 10.5529 10.1815 9.76479C9.85051 8.6587 9.69309 7.50798 9.71488 6.35363C9.69353 5.16711 9.85084 3.98414 10.1815 2.84446C10.4036 2.0304 10.8422 1.29178 11.4508 0.707237C11.9829 0.250871 12.6607 0 13.3617 0C14.0627 0 14.7405 0.250871 15.2726 0.707237C15.8844 1.28654 16.3224 2.0251 16.5372 2.8398C16.8684 3.98098 17.0257 5.16554 17.0039 6.35363C17.0255 7.50951 16.8681 8.66175 16.5372 9.76944C16.3168 10.5579 15.8805 11.2691 15.2773 11.8227C14.7347 12.2602 14.0587 12.4987 13.3617 12.4987C12.6647 12.4987 11.9887 12.2602 11.4462 11.8227L11.4508 11.818ZM11.9454 8.75682C12.0243 9.28428 12.2187 9.78781 12.5148 10.2314C12.608 10.3711 12.7333 10.4864 12.8803 10.5675C13.0272 10.6487 13.1915 10.6935 13.3594 10.6981C13.8587 10.6981 14.2506 10.3341 14.54 9.60613C14.8748 8.55118 15.0201 7.44527 14.9693 6.33961C14.9821 5.49851 14.9165 4.65802 14.7733 3.82908C14.698 3.28405 14.5054 2.76184 14.2087 2.29849C14.1254 2.14666 14.0028 2.02 13.8538 1.93178C13.7048 1.84355 13.5349 1.797 13.3617 1.797C13.1885 1.797 13.0185 1.84355 12.8696 1.93178C12.7206 2.02 12.598 2.14666 12.5148 2.29849C12.2216 2.76234 12.0278 3.2819 11.9454 3.82443C11.8005 4.65163 11.7334 5.49056 11.7448 6.33028C11.732 7.14375 11.7992 7.9565 11.9454 8.75682Z" fill="black"/>
<path d="M23.6615 0.199219V4.83766H22.5929C22.2056 4.8589 21.8187 4.78856 21.4636 4.63234C21.1834 4.48359 20.9687 4.23568 20.8616 3.93703C20.7191 3.52156 20.6542 3.08339 20.6703 2.64443V0.199219H18.6544V2.6351C18.5958 3.68585 18.9098 4.72359 19.541 5.56561C19.8725 5.9338 20.2834 6.22177 20.7426 6.40773C21.2018 6.59366 21.6973 6.67271 22.1916 6.63891H23.6615V12.2946H25.6774V0.199219H23.6615Z" fill="black"/>
<path d="M34.5191 1.9398H32.1533V12.2946H30.1374V1.9398H27.7715V0.199219H34.5191V1.9398Z" fill="black"/>
<path d="M38.5799 0.196306H40.1944C40.8597 0.160364 41.521 0.322774 42.0937 0.66295C42.5937 0.997057 42.9823 1.47328 43.2092 2.03022C43.4867 2.72117 43.661 3.44912 43.7271 4.19078L44.6603 12.2684H42.6446L41.9913 6.62665H38.5705V12.2917H36.5547V0.196306H38.5799ZM38.5799 4.9094H41.7999L41.716 4.21409C41.6786 3.76732 41.586 3.32689 41.4404 2.90284C41.3383 2.61751 41.1382 2.37771 40.8757 2.2262C40.5372 2.06393 40.1632 1.99008 39.7885 2.01155H38.5799V4.9094Z" fill="black"/>
<path d="M2.56986 14.7044C3.24198 14.6866 3.90538 14.8597 4.4831 15.2037C5.04952 15.5642 5.4911 16.0905 5.7477 16.7109C6.0755 17.5015 6.23445 18.3519 6.21433 19.2075C6.2351 20.0168 6.09061 20.8218 5.78971 21.5734C5.56678 22.1507 5.2064 22.6648 4.73976 23.0713C4.42423 23.3686 4.01504 23.5468 3.58247 23.5753C3.35842 23.591 3.13364 23.5573 2.92401 23.4767C2.71438 23.3961 2.52498 23.2704 2.3692 23.1086V26.7998H0.348633V14.7044H2.56986ZM2.48119 20.9667C2.5309 21.1829 2.63353 21.3833 2.77984 21.55C2.82751 21.6087 2.88713 21.6565 2.95472 21.6903C3.02231 21.7241 3.09632 21.7431 3.17182 21.746C3.34895 21.7362 3.51574 21.6595 3.63847 21.5314C3.82694 21.3355 3.96192 21.0944 4.03044 20.8314C4.14381 20.4293 4.19574 20.0124 4.18445 19.5948C4.18445 18.4655 4.04911 17.6676 3.76913 17.2009C3.65451 16.9853 3.48194 16.8059 3.27088 16.6831C3.05981 16.5602 2.81864 16.4988 2.57452 16.5056H2.3692V20.0335C2.36298 20.3482 2.40067 20.6623 2.48119 20.9667Z" fill="black"/>
<path d="M8.43914 26.3212C7.83258 25.7668 7.39297 25.0541 7.16985 24.2633C6.83852 23.1572 6.6811 22.0065 6.70322 20.8521C6.68183 19.6671 6.83914 18.4857 7.16985 17.3476C7.39006 16.5341 7.82906 15.7965 8.43914 15.215C8.97121 14.7587 9.64905 14.5078 10.35 14.5078C11.051 14.5078 11.7289 14.7587 12.2609 15.215C12.8701 15.7946 13.3076 16.5309 13.5255 17.343C13.8563 18.4842 14.0136 19.6687 13.9922 20.8568C14.0221 22.0115 13.8726 23.1638 13.5489 24.2726C13.3297 25.0616 12.8931 25.773 12.2889 26.3258C11.7478 26.7666 11.0713 27.0073 10.3734 27.0073C9.67545 27.0073 8.99892 26.7666 8.4578 26.3258L8.43914 26.3212ZM8.93842 23.2647C9.02027 23.779 9.21292 24.2694 9.50307 24.7019C9.59538 24.8403 9.71924 24.9548 9.86446 25.0359C10.0097 25.117 10.1721 25.1625 10.3384 25.1686C10.8361 25.1686 11.2281 24.8046 11.5143 24.0766C11.8537 23.0226 12.0007 21.9162 11.9483 20.8101C11.961 19.969 11.8954 19.1285 11.7523 18.2995C11.6749 17.758 11.4823 17.2392 11.1876 16.7783C11.1044 16.6265 10.9818 16.4998 10.8328 16.4116C10.6839 16.3234 10.5139 16.2768 10.3407 16.2768C10.1675 16.2768 9.99755 16.3234 9.84856 16.4116C9.69956 16.4998 9.577 16.6265 9.49373 16.7783C9.20002 17.2559 9.01076 17.7902 8.93842 18.3462C8.79393 19.1735 8.72674 20.0124 8.73778 20.8521C8.72605 21.6609 8.79324 22.4689 8.93842 23.2647Z" fill="black"/>
<path d="M15.3704 17.4387C15.8625 16.5273 16.637 15.8002 17.5776 15.3668C18.6789 14.8886 19.873 14.6622 21.0728 14.7041V16.5194C19.6356 16.5194 18.5389 16.8787 17.7783 17.6066C17.0177 18.3346 16.635 19.4126 16.635 20.8732C16.635 22.3338 17.013 23.2997 17.7737 23.981C18.5343 24.6623 19.6402 25.0076 21.0728 25.0076V26.7995C19.0103 26.7995 17.419 26.3018 16.2991 25.3063C15.1791 24.3108 14.6191 22.8253 14.6191 20.8498C14.5748 19.6673 14.8334 18.4931 15.3704 17.4387Z" fill="black"/>
<path d="M22.1555 17.44C22.6479 16.5273 23.4244 15.7999 24.3674 15.3682C25.4612 14.8857 26.6488 14.6529 27.8439 14.6868V16.5021C26.4113 16.5021 25.3147 16.8614 24.5493 17.5894C23.7841 18.3173 23.4061 19.4139 23.4061 20.8512C23.4061 22.2884 23.7841 23.2777 24.5447 23.959C25.3053 24.6404 26.4113 24.9857 27.8392 24.9857V26.8009C25.7766 26.8009 24.1854 26.3031 23.0654 25.3076C21.9455 24.3122 21.3855 22.8267 21.3855 20.8512C21.347 19.6671 21.612 18.4928 22.1555 17.44Z" fill="black"/>
<path d="M30.8067 14.7042V19.0207L34.2319 16.1322L36.2478 14.4336V26.7997H34.2319V18.5681L30.8067 21.4566V26.7997H28.7861V14.7042H30.8067Z" fill="black"/>
<path d="M39.2115 14.7027V19.0192L42.6366 16.1307L44.643 14.4414V26.7981H42.6272V18.5665L39.202 21.4551V26.7981H37.1953V14.7027H39.2115Z" fill="black"/>
</g>
</svg>
