<svg width="65" height="27" viewBox="0 0 65 27" fill="none" xmlns="http://www.w3.org/2000/svg">
<path fill-rule="evenodd" clip-rule="evenodd" d="M9.20761 18.1162H6.59485C2.51894 18.1162 5.48008 9.86722 8.91151 9.86722H13.0397C13.7016 9.86722 14.8686 9.98342 15.4434 8.42324L16.3318 6H10.6708C7.60515 6 5.21878 7.02905 3.49437 8.75519C0.515814 11.7095 -0.494454 16.3237 0.219703 18.5311C0.899022 20.5726 2.74538 21.917 5.63683 21.9502L7.88383 21.9668H10.6533L11.3327 20.0249C11.8378 18.6473 10.7056 18.1162 9.20761 18.1162ZM41.0137 14.6971L41.8671 12.0581H32.7574C31.242 12.0581 30.5626 12.4564 30.3014 13.2863L29.4479 15.9253H38.5577C40.0731 15.9253 40.7524 15.527 41.0137 14.6971ZM28.0892 19.3444L27.2357 21.9834H36.3456C37.8436 21.9834 38.5403 21.5851 38.8016 20.7552L39.6551 18.1162H30.5453C29.0473 18.1162 28.3679 18.5145 28.0892 19.3444ZM43.1387 8.6556L43.9924 6.0166H34.8824C33.367 6.0166 32.6877 6.41494 32.4264 7.24481L31.5729 9.88382H40.6828C42.181 9.88382 42.86 9.48548 43.1387 8.6556ZM29.3782 9.18673C28.995 6.73029 27.6189 6.0166 24.2746 6.0166H18.1781L14.6248 15.9253H16.8717C18.213 15.9253 18.8923 15.9419 19.6064 14.1162L21.087 9.86722H23.3514C25.2849 9.86722 24.8494 12.1743 23.874 14.4149C23.0031 16.39 21.4876 18.1328 19.6587 18.1328H15.8789C14.3635 18.1328 13.6668 18.5311 13.388 19.361L12.4474 22H15.217L17.9343 21.9834C20.338 21.9668 22.3063 21.8008 24.6055 19.8257C27.0441 17.7178 29.8659 12.307 29.3782 9.18673ZM60 6H54.7222L49.7579 11.029C49.1829 11.61 48.5907 12.1909 48.0158 12.8714H47.9635L50.4369 6H46.1349L40.3344 21.9834H44.6368L46.483 16.9544L48.3989 15.4108L49.9146 19.9585C50.3847 21.3693 50.8728 21.9834 51.9179 21.9834H55.2099L51.8305 13.054L60 6Z" fill="black"/>
</svg>
