<svg width="50" height="22" viewBox="0 0 50 22" fill="none" xmlns="http://www.w3.org/2000/svg">
<path d="M21.5092 17.2537V0.523422C21.6271 -0.414233 18.0305 0.248904 17.6277 0.0593138C16.3345 -0.0320496 17.5857 20.0267 17.1632 20.4904C16.79 21.2591 23.6624 21.2265 23.2867 20.49C23.345 16.497 23.514 18.706 21.5092 17.2537Z" fill="#EF786F"/>
<path d="M14.9454 20.9775C14.5885 20.7553 10.8893 21.4347 11.0086 20.5692C11.3848 20.1608 10.2712 0.00208382 11.4161 0.0844396C11.7738 0.305771 15.4734 -0.373664 15.3537 0.491929C14.978 0.900277 16.091 21.059 14.9454 20.9775Z" fill="#EF786F"/>
<path d="M4.02008 0.0553282C3.6143 0.293388 -0.200227 -0.47784 0.00823571 0.569193L2.17265 20.5353C2.24299 21.2821 7.71536 21.1822 7.78871 20.5353L9.92996 0.568764C10.1401 -0.454678 6.32518 0.255213 5.91898 0.0548995C4.52365 0.0694833 6.38652 13.7693 4.99119 13.7843C3.60058 13.7714 5.41069 0.0686252 4.02008 0.0553282Z" fill="#EF786F"/>
<path d="M45.4861 20.9775C45.843 20.7553 49.5422 21.4347 49.4229 20.5692C49.0467 20.1608 50.1603 0.00208382 49.0154 0.0844396C48.6577 0.305771 44.9581 -0.373664 45.0778 0.491929C45.4536 0.900277 44.3405 21.059 45.4861 20.9775Z" fill="#EF786F"/>
<path d="M38.0908 0.0552777C37.685 0.293337 33.8705 -0.477462 34.0785 0.569143L36.2434 20.5353C36.3133 21.282 41.7861 21.1821 41.8594 20.5357C41.8594 20.5348 44.0007 0.568714 44.0007 0.568714C44.2108 -0.454728 40.3955 0.255162 39.9897 0.054849C38.5944 0.0690038 40.4572 13.7701 39.0615 13.7842C37.6713 13.7714 39.481 0.0685747 38.0908 0.0552777Z" fill="#EF786F"/>
<path d="M29.0242 13.2253C28.8818 12.5441 28.527 7.00998 29.4879 7.21759C30.2488 6.65611 29.6466 16.2025 29.0242 13.2253ZM30.459 20.9466C30.8648 20.7214 34.6793 21.4703 34.4712 20.4327L32.3068 0.466562C32.4226 -0.408897 27.5126 0.246518 27.1519 0.0522095C26.0195 -0.0910552 24.9617 20.0286 24.5482 20.434C24.4273 21.3077 29.0469 21.2091 29.0242 20.4833C29.2 20.0372 28.5605 16.8918 29.5213 17.0175C30.7725 17.1578 29.2078 20.8063 30.459 20.9466Z" fill="#EF786F"/>
</svg>
