<svg width="20" height="22" viewBox="0 0 20 22" fill="none" xmlns="http://www.w3.org/2000/svg">
<path fill-rule="evenodd" clip-rule="evenodd" d="M4.69849 5.08954C4.94345 2.23733 7.2957 0 10.1613 0C13.0269 0 15.3791 2.23733 15.6241 5.08954L15.9541 5.08954C16.4728 5.08953 16.9203 5.08951 17.2887 5.12065C17.6776 5.15353 18.0642 5.22614 18.4351 5.42226C18.9653 5.70264 19.3977 6.14274 19.6731 6.68249C19.8658 7.06003 19.9371 7.45354 19.9694 7.84943C20 8.2244 20 8.67987 20 9.20786V14.7139C20 15.7995 20 16.6751 19.9422 17.3838C19.8827 18.1135 19.7568 18.754 19.4552 19.3451C18.9962 20.2447 18.2756 20.9782 17.3918 21.4455C16.8112 21.7525 16.1819 21.8806 15.465 21.9412C14.7688 22 13.9087 22 12.8422 22H7.15789C6.09144 22 5.23117 22 4.535 21.9412C3.81808 21.8806 3.18884 21.7525 2.60819 21.4455C1.72443 20.9782 1.00385 20.2447 0.544776 19.3451C0.243152 18.754 0.117336 18.1135 0.0577991 17.3838C-1.6436e-05 16.6751 -8.36115e-06 15.7995 1.56013e-06 14.7139L8.67952e-07 9.20795C-1.71288e-05 8.67992 -3.2356e-05 8.22442 0.0305603 7.84943C0.0628585 7.45354 0.134197 7.06003 0.326866 6.68249C0.602311 6.14274 1.03466 5.70264 1.56491 5.42226C1.93582 5.22614 2.3224 5.15353 2.71132 5.12065C3.07971 5.08951 3.5272 5.08953 4.04593 5.08954L4.69849 5.08954ZM6.64563 5.08954C6.88163 3.32773 8.36572 1.97015 10.1613 1.97015C11.9569 1.97015 13.441 3.32773 13.677 5.08954H6.64563ZM2.45712 7.1706C2.50571 7.14491 2.60443 7.10662 2.87151 7.08404C3.15016 7.06049 3.51651 7.05969 4.08387 7.05969H15.9161C16.4835 7.05969 16.8498 7.06049 17.1285 7.08404C17.3956 7.10662 17.4943 7.14491 17.5429 7.1706C17.7196 7.26406 17.8637 7.41076 17.9556 7.59067C17.9808 7.64014 18.0184 7.74063 18.0406 8.01248C18.0637 8.29613 18.0645 8.66904 18.0645 9.24656V14.671C18.0645 15.8096 18.0637 16.6032 18.0134 17.2207C17.9639 17.8265 17.8718 18.1739 17.7377 18.4369C17.4622 18.9767 17.0299 19.4168 16.4996 19.6971C16.2413 19.8337 15.8999 19.9275 15.3048 19.9778C14.6982 20.0291 13.9185 20.0299 12.8 20.0299H7.2C6.08152 20.0299 5.30183 20.0291 4.69518 19.9778C4.10011 19.9275 3.75874 19.8337 3.5004 19.6971C2.97014 19.4168 2.5378 18.9767 2.26235 18.4369C2.12815 18.1739 2.03606 17.8265 1.98664 17.2207C1.93626 16.6032 1.93549 15.8096 1.93549 14.671V9.24656C1.93549 8.66904 1.93626 8.29613 1.9594 8.01248C1.98158 7.74063 2.0192 7.64014 2.04444 7.59067C2.13626 7.41076 2.28037 7.26406 2.45712 7.1706Z" fill="white"/>
</svg>
