<svg width="54" height="35" viewBox="0 0 54 35" fill="none" xmlns="http://www.w3.org/2000/svg">
<rect width="54" height="35" rx="17.5" fill="#EF786F"/>
<path fill-rule="evenodd" clip-rule="evenodd" d="M13.8315 20.3303H12.1767C9.59533 20.3303 11.4707 14.6588 13.644 14.6588H16.2585C16.6777 14.6588 17.4168 14.7387 17.7808 13.6661L18.3435 12H14.7582C12.8166 12 11.3052 12.7075 10.2131 13.8943C8.32668 15.9255 7.68685 19.0978 8.13915 20.6156C8.56938 22.0191 9.73874 22.9435 11.57 22.9663L12.9931 22.9777H14.7471L15.1774 21.6426C15.4973 20.6954 14.7802 20.3303 13.8315 20.3303ZM33.9754 17.9795L34.5158 16.1651H28.7463C27.7866 16.1651 27.3563 16.439 27.1909 17.0096L26.6503 18.824H32.4199C33.3796 18.824 33.8099 18.5501 33.9754 17.9795ZM25.7898 21.1747L25.2493 22.9891H31.0189C31.9676 22.9891 32.4089 22.7152 32.5743 22.1447L33.1149 20.3303H27.3453C26.3966 20.3303 25.9663 20.6041 25.7898 21.1747ZM35.3212 13.8258L35.8619 12.0114H30.0922C29.1325 12.0114 28.7022 12.2853 28.5367 12.8558L27.9962 14.6703H33.7658C34.7146 14.6703 35.1447 14.3964 35.3212 13.8258ZM26.6062 14.191C26.3635 12.5021 25.492 12.0114 23.3739 12.0114H19.5128L17.2624 18.824H18.6854C19.5349 18.824 19.9651 18.8354 20.4174 17.5801L21.3551 14.6588H22.7892C24.0138 14.6588 23.738 16.245 23.1202 17.7855C22.5686 19.1435 21.6088 20.3417 20.4505 20.3417H18.0566C17.0969 20.3417 16.6556 20.6156 16.4791 21.1861L15.8834 23.0005H17.6374L19.3584 22.9891C20.8807 22.9777 22.1273 22.8636 23.5835 21.5056C25.1279 20.0564 26.9151 16.3363 26.6062 14.191ZM46 12H42.6574L39.5133 15.4576C39.1492 15.857 38.7741 16.2564 38.41 16.7243H38.3769L39.9434 12H37.2188L33.5451 22.9891H36.27L37.4392 19.5315L38.6527 18.4702L39.6126 21.5969C39.9103 22.5669 40.2194 22.9891 40.8813 22.9891H42.9663L40.826 16.8498L46 12Z" fill="white"/>
</svg>
