<svg width="64" height="43" viewBox="0 0 64 43" fill="none" xmlns="http://www.w3.org/2000/svg">
<rect width="64" height="43" rx="21.5" fill="#EF786F"/>
<path d="M36.3 19.7074C36.2477 19.7354 36.1893 19.75 36.13 19.75C36.0707 19.75 36.0123 19.7354 35.96 19.7074L35.41 19.3674C35.3612 19.3372 35.3202 19.2961 35.29 19.2474V19.2374C35.2547 19.1836 35.234 19.1216 35.23 19.0574L35.21 18.4074C35.211 18.3471 35.227 18.2881 35.2567 18.2357C35.2864 18.1833 35.3288 18.1392 35.38 18.1074L42.08 14.2074L32.68 9.08738C32.5616 9.02988 32.4316 9 32.3 9C32.1684 9 32.0384 9.02988 31.92 9.08738L22.52 14.1974L33.05 20.3274C33.1012 20.3592 33.1436 20.4033 33.1733 20.4557C33.203 20.5081 33.219 20.5671 33.22 20.6274V29.5674C33.219 29.6276 33.203 29.6866 33.1733 29.7391C33.1436 29.7915 33.1012 29.8356 33.05 29.8674L32.48 30.1674C32.4282 30.1976 32.3699 30.2147 32.31 30.2174H32.3C32.2376 30.2194 32.1757 30.2057 32.12 30.1774L31.55 29.8574C31.497 29.8268 31.4526 29.7832 31.4211 29.7307C31.3896 29.6782 31.372 29.6186 31.37 29.5574V21.5974C31.3662 21.565 31.3553 21.5338 31.338 21.5061C31.3207 21.4784 31.2975 21.455 31.27 21.4374L22 16.0474V26.6274C22 26.8574 22.17 27.1574 22.37 27.2774L31.93 32.9074C32.0447 32.9654 32.1715 32.9956 32.3 32.9956C32.4285 32.9956 32.5553 32.9654 32.67 32.9074L42.23 27.2774C42.43 27.1474 42.6 26.8574 42.6 26.6274V16.0474L36.3 19.7074Z" fill="white"/>
</svg>
