<svg width="54" height="35" viewBox="0 0 54 35" fill="none" xmlns="http://www.w3.org/2000/svg">
<rect width="54" height="35" rx="17.5" fill="#60C3D8"/>
<path d="M30.801 16.4782C30.7578 16.5004 30.7096 16.512 30.6607 16.512C30.6117 16.512 30.5635 16.5004 30.5204 16.4782L30.0665 16.209C30.0263 16.1851 29.9924 16.1526 29.9675 16.114V16.1061C29.9383 16.0635 29.9213 16.0144 29.918 15.9636L29.9015 15.4489C29.9023 15.4012 29.9155 15.3544 29.94 15.3129C29.9645 15.2714 29.9995 15.2365 30.0417 15.2113L35.5709 12.1233L27.8136 8.06919C27.7159 8.02366 27.6086 8 27.5 8C27.3914 8 27.2841 8.02366 27.1864 8.06919L19.4291 12.1153L28.1189 16.9692C28.1612 16.9943 28.1961 17.0293 28.2206 17.0708C28.2452 17.1123 28.2584 17.159 28.2592 17.2067V24.2855C28.2584 24.3332 28.2452 24.3799 28.2206 24.4214C28.1961 24.4629 28.1612 24.4979 28.1189 24.523L27.6485 24.7606C27.6058 24.7845 27.5577 24.7981 27.5083 24.8002H27.5C27.4485 24.8018 27.3974 24.7909 27.3515 24.7685L26.8811 24.5151C26.8373 24.4909 26.8007 24.4564 26.7747 24.4148C26.7487 24.3733 26.7342 24.326 26.7325 24.2776V17.9748C26.7294 17.9491 26.7204 17.9244 26.7061 17.9025C26.6919 17.8806 26.6727 17.862 26.65 17.8481L19 13.5802V21.9576C19 22.1397 19.1403 22.3772 19.3053 22.4722L27.1947 26.9301C27.2893 26.9761 27.3939 27 27.5 27C27.6061 27 27.7107 26.9761 27.8053 26.9301L35.6947 22.4722C35.8597 22.3693 36 22.1397 36 21.9576V13.5802L30.801 16.4782Z" fill="white"/>
</svg>
