<svg width="112" height="76" viewBox="0 0 112 76" fill="none" xmlns="http://www.w3.org/2000/svg">
<rect x="1" y="1" width="110" height="74" rx="14" stroke="black" stroke-width="2"/>
<path d="M33.8554 58H32.8354V55.84H30.8154V58H29.7954V52.93H30.8154V54.95H32.8354V52.93H33.8554V58ZM39.4689 55.46C39.4689 56.32 39.3489 56.96 38.8689 57.46C38.5389 57.8 38.0389 58.06 37.3489 58.06C36.6589 58.06 36.1689 57.8 35.8389 57.46C35.3589 56.96 35.2389 56.32 35.2389 55.46C35.2389 54.61 35.3589 53.97 35.8389 53.47C36.1689 53.13 36.6589 52.87 37.3489 52.87C38.0389 52.87 38.5389 53.13 38.8689 53.47C39.3489 53.97 39.4689 54.61 39.4689 55.46ZM38.4489 55.46C38.4489 54.91 38.4089 54.38 38.0989 54.07C37.9089 53.88 37.6489 53.78 37.3489 53.78C37.0489 53.78 36.7989 53.88 36.6089 54.07C36.2989 54.38 36.2589 54.91 36.2589 55.46C36.2589 56.01 36.2989 56.54 36.6089 56.85C36.7989 57.04 37.0489 57.15 37.3489 57.15C37.6489 57.15 37.9089 57.04 38.0989 56.85C38.4089 56.54 38.4489 56.01 38.4489 55.46ZM44.89 56.57C44.89 57.45 44.31 58 43.36 58H40.85V52.93H43.28C44.21 52.93 44.81 53.47 44.81 54.29C44.81 54.8 44.57 55.16 44.1 55.38C44.61 55.61 44.89 55.99 44.89 56.57ZM43.81 54.36C43.81 53.96 43.54 53.73 43.06 53.73H41.86V55.01H43.06C43.55 55.01 43.81 54.78 43.81 54.36ZM43.89 56.5C43.89 56.06 43.6 55.8 43.12 55.8H41.86V57.2H43.12C43.6 57.2 43.89 56.93 43.89 56.5ZM50.0293 58H49.0293V57.54C48.6593 57.91 48.3093 58.06 47.6793 58.06C47.0493 58.06 46.6293 57.91 46.3193 57.6C46.0593 57.33 45.9193 56.94 45.9193 56.51C45.9193 55.66 46.5093 55.05 47.6793 55.05H49.0093V54.69C49.0093 54.04 48.6993 53.74 47.8993 53.74C47.3593 53.74 47.0793 53.88 46.7893 54.24L46.1293 53.61C46.5993 53.05 47.0893 52.87 47.9393 52.87C49.3393 52.87 50.0293 53.47 50.0293 54.61V58ZM49.0093 56.17V55.76H47.8393C47.2193 55.76 46.9093 56.02 46.9093 56.49C46.9093 56.96 47.1993 57.21 47.8693 57.21C48.2293 57.21 48.5193 57.17 48.7893 56.92C48.9493 56.77 49.0093 56.53 49.0093 56.17ZM54.282 55.29V53.75H53.092C52.562 53.75 52.262 54.05 52.262 54.53C52.262 55 52.562 55.29 53.092 55.29H54.282ZM52.382 58H51.212L52.312 55.92C51.672 55.74 51.262 55.21 51.262 54.48C51.262 53.57 51.922 52.93 52.902 52.93H55.292V58H54.272V56.11H53.342L52.382 58ZM60.3668 58H59.3368V52.93H60.3668V58ZM63.6768 58H62.4268L60.3768 55.36L62.3068 52.93H63.5268L61.5068 55.31L63.6768 58ZM68.1152 58H67.1152V57.54C66.7452 57.91 66.3952 58.06 65.7652 58.06C65.1352 58.06 64.7152 57.91 64.4052 57.6C64.1452 57.33 64.0052 56.94 64.0052 56.51C64.0052 55.66 64.5952 55.05 65.7652 55.05H67.0952V54.69C67.0952 54.04 66.7852 53.74 65.9852 53.74C65.4452 53.74 65.1652 53.88 64.8752 54.24L64.2152 53.61C64.6852 53.05 65.1752 52.87 66.0252 52.87C67.4252 52.87 68.1152 53.47 68.1152 54.61V58ZM67.0952 56.17V55.76H65.9252C65.3052 55.76 64.9952 56.02 64.9952 56.49C64.9952 56.96 65.2852 57.21 65.9552 57.21C66.3152 57.21 66.6052 57.17 66.8752 56.92C67.0352 56.77 67.0952 56.53 67.0952 56.17ZM73.8379 55.46C73.8379 56.29 73.7579 57.11 73.2679 57.61C72.9879 57.89 72.5579 58.06 72.0379 58.06C71.4979 58.06 71.0779 57.93 70.7079 57.48V60.05H69.6879V52.93H70.6879V53.47C71.0679 53.01 71.4879 52.87 72.0279 52.87C72.5479 52.87 72.9879 53.04 73.2679 53.32C73.7579 53.82 73.8379 54.63 73.8379 55.46ZM72.8179 55.46C72.8179 54.56 72.6879 53.78 71.7679 53.78C70.8379 53.78 70.7079 54.56 70.7079 55.46C70.7079 56.36 70.8379 57.15 71.7679 57.15C72.6879 57.15 72.8179 56.36 72.8179 55.46ZM78.6464 53.82H77.0964V58H76.0764V53.82H74.4664V52.93H78.6464V53.82ZM83.2519 58H82.2519V57.54C81.8819 57.91 81.5319 58.06 80.9019 58.06C80.2719 58.06 79.8519 57.91 79.5419 57.6C79.2819 57.33 79.1419 56.94 79.1419 56.51C79.1419 55.66 79.7319 55.05 80.9019 55.05H82.2319V54.69C82.2319 54.04 81.9219 53.74 81.1219 53.74C80.5819 53.74 80.3019 53.88 80.0119 54.24L79.3519 53.61C79.8219 53.05 80.3119 52.87 81.1619 52.87C82.5619 52.87 83.2519 53.47 83.2519 54.61V58ZM82.2319 56.17V55.76H81.0619C80.4419 55.76 80.1319 56.02 80.1319 56.49C80.1319 56.96 80.4219 57.21 81.0919 57.21C81.4519 57.21 81.7419 57.17 82.0119 56.92C82.1719 56.77 82.2319 56.53 82.2319 56.17Z" fill="black"/>
<path d="M46.8675 33.8516H45.648C44.3065 33.8516 43.209 34.9491 43.209 36.2906V37.5101C43.209 38.8516 44.3065 39.9491 45.648 39.9491H46.8675C48.209 39.9491 49.3065 38.8516 49.3065 37.5101V36.2906C49.3065 34.9491 48.209 33.8516 46.8675 33.8516Z" fill="black"/>
<path d="M65.4656 35.2578H51.7461V36.4773H65.4656V35.2578Z" fill="black"/>
<path d="M62.4168 37.6953H51.7461V38.9148H62.4168V37.6953Z" fill="black"/>
<path d="M70.4647 18H46.6843C44.9769 18 43.6355 19.3415 43.6355 21.0488V22.2683H42.416C40.7087 22.2683 39.3672 23.6098 39.3672 25.3171V39.9512C39.3672 41.6585 40.7087 43 42.416 43H66.1965C67.9038 43 69.2452 41.6585 69.2452 39.9512V38.7317H70.4647C72.1721 38.7317 73.5135 37.3902 73.5135 35.6829V21.0488C73.5135 19.3415 72.1721 18 70.4647 18ZM42.416 23.4878H66.1965C67.233 23.4878 68.0257 24.2805 68.0257 25.3171V27.1463H40.5867V25.3171C40.5867 24.2805 41.3794 23.4878 42.416 23.4878ZM66.1965 41.7805H42.416C41.3794 41.7805 40.5867 40.9878 40.5867 39.9512V30.8049H68.0257V39.9512C68.0257 40.9878 67.233 41.7805 66.1965 41.7805ZM72.294 35.6829C72.294 36.7195 71.5013 37.5122 70.4647 37.5122H69.2452V25.3171C69.2452 23.6098 67.9038 22.2683 66.1965 22.2683H44.855V21.0488C44.855 20.0122 45.6477 19.2195 46.6843 19.2195H70.4647C71.5013 19.2195 72.294 20.0122 72.294 21.0488V35.6829Z" fill="black"/>
</svg>
