<svg width="112" height="76" viewBox="0 0 112 76" fill="none" xmlns="http://www.w3.org/2000/svg">
<rect x="0.5" y="0.5" width="111" height="75" rx="14.5" stroke="#E3E3E3"/>
<path d="M16.6924 26C16.4434 26 16.2318 26.1803 16.1929 26.4259L13.3103 44.6614C13.2999 44.7281 13.304 44.7961 13.3224 44.861C13.3408 44.9259 13.3731 44.986 13.417 45.0373C13.461 45.0885 13.5155 45.1296 13.5769 45.1579C13.6383 45.1861 13.7051 45.2007 13.7727 45.2007H17.1911C17.4398 45.2007 17.6517 45.02 17.6906 44.7748L18.5374 39.4198C18.576 39.1746 18.7879 38.9939 19.0369 38.9939H22.1449C25.7763 38.9939 28.859 36.3508 29.422 32.7692C29.9898 29.1574 27.1611 26.0078 23.1521 26H16.6924ZM20.0155 30.0709H22.5022C24.5494 30.0709 25.2161 31.2759 25.0053 32.6085C24.7945 33.9439 23.7591 34.9276 21.7787 34.9276H19.2477L20.0155 30.0709ZM36.3748 31.3105C35.5116 31.3137 34.5183 31.4901 33.4032 31.9534C30.8455 33.0169 29.6171 35.2149 29.0955 36.8173C29.0955 36.8173 27.4352 41.7061 31.1863 44.392C31.1863 44.392 34.6652 46.9777 38.5813 44.2327L38.5138 44.6614C38.5033 44.728 38.5074 44.796 38.5258 44.8608C38.5442 44.9257 38.5764 44.9858 38.6203 45.037C38.6641 45.0882 38.7186 45.1294 38.7799 45.1576C38.8412 45.1859 38.9079 45.2006 38.9754 45.2007H42.2206C42.4696 45.2007 42.6812 45.02 42.7201 44.7748L44.6941 32.287C44.7047 32.2204 44.7007 32.1523 44.6823 32.0874C44.664 32.0225 44.6318 31.9623 44.5879 31.911C44.5441 31.8597 44.4896 31.8185 44.4282 31.7902C44.3669 31.7619 44.3001 31.7472 44.2325 31.7471H40.9873C40.7383 31.7471 40.5264 31.9278 40.4878 32.173L40.3817 32.8451C40.3817 32.8451 38.9647 31.3008 36.3748 31.3105ZM36.4809 35.2548C36.8535 35.2548 37.1944 35.3061 37.5002 35.4041C38.9004 35.8525 39.6943 37.1944 39.4645 38.6489C39.1812 40.4398 37.7089 41.7585 35.8206 41.7585C35.4483 41.7585 35.1075 41.7075 34.8013 41.6095C33.4014 41.1612 32.6026 39.8193 32.8323 38.3648C33.1156 36.5739 34.5926 35.2548 36.4809 35.2548Z" fill="#003087"/>
<path d="M63.4248 26C63.1758 26 62.9643 26.1803 62.9253 26.4259L60.0428 44.6614C60.0323 44.7281 60.0364 44.7961 60.0548 44.861C60.0732 44.9259 60.1055 44.986 60.1495 45.0373C60.1934 45.0885 60.2479 45.1296 60.3093 45.1579C60.3707 45.1861 60.4375 45.2007 60.5051 45.2007H63.9236C64.1722 45.2007 64.3841 45.02 64.4231 44.7748L65.2698 39.4198C65.3084 39.1746 65.5203 38.9939 65.7693 38.9939H68.8773C72.5087 38.9939 75.591 36.3508 76.1537 32.7692C76.7218 29.1574 73.8936 26.0078 69.8845 26H63.4248ZM66.7479 30.0709H69.2346C71.2818 30.0709 71.9485 31.2759 71.7377 32.6085C71.5269 33.9439 70.4919 34.9276 68.5111 34.9276H65.9801L66.7479 30.0709ZM83.1068 31.3105C82.2436 31.3137 81.2504 31.4901 80.1353 31.9534C77.5775 33.0169 76.3492 35.2149 75.8275 36.8173C75.8275 36.8173 74.168 41.7061 77.9191 44.392C77.9191 44.392 81.3972 46.9777 85.3138 44.2327L85.2462 44.6614C85.2358 44.7281 85.2399 44.7961 85.2583 44.861C85.2767 44.9259 85.309 44.986 85.3529 45.0373C85.3969 45.0885 85.4514 45.1296 85.5128 45.1579C85.5742 45.1861 85.641 45.2007 85.7086 45.2007H88.9534C89.2024 45.2007 89.414 45.02 89.4529 44.7748L91.4276 32.287C91.4382 32.2203 91.4342 32.1522 91.4158 32.0872C91.3974 32.0223 91.3652 31.962 91.3212 31.9107C91.2773 31.8594 91.2227 31.8182 91.1612 31.7899C91.0998 31.7617 91.0329 31.747 90.9653 31.7471H87.7201C87.471 31.7471 87.2592 31.9278 87.2206 32.173L87.1145 32.8451C87.1145 32.8451 85.6968 31.3008 83.1068 31.3105ZM83.2129 35.2548C83.5856 35.2548 83.9264 35.3061 84.2323 35.4041C85.6325 35.8525 86.4263 37.1944 86.1966 38.6489C85.9133 40.4398 84.4409 41.7585 82.5527 41.7585C82.1804 41.7585 81.8395 41.7075 81.5334 41.6095C80.1335 41.1612 79.3346 39.8193 79.5644 38.3648C79.8477 36.5739 81.3247 35.2548 83.2129 35.2548Z" fill="#0070E0"/>
<path d="M46.2335 31.7464C45.9763 31.7464 45.7933 31.997 45.8719 32.2411L49.4298 43.2545L46.2128 48.4445C46.0566 48.6964 46.2381 49.0218 46.535 49.0218H50.3372C50.446 49.0217 50.5529 48.9937 50.6476 48.9404C50.7422 48.887 50.8215 48.8103 50.8778 48.7175L60.8142 32.3203C60.9668 32.0683 60.7846 31.7461 60.4895 31.7461H56.6876C56.5778 31.7462 56.4699 31.7748 56.3746 31.8291C56.2792 31.8834 56.1997 31.9615 56.1438 32.0558L52.2326 38.6429L50.2472 32.1046C50.1826 31.8919 49.9857 31.7461 49.7631 31.7461L46.2335 31.7464Z" fill="#003087"/>
<path d="M95.1151 26C94.8664 26 94.6545 26.1807 94.6156 26.4259L91.7323 44.6607C91.7217 44.7274 91.7258 44.7956 91.7441 44.8605C91.7625 44.9255 91.7948 44.9857 91.8387 45.037C91.8827 45.0883 91.9372 45.1296 91.9987 45.1578C92.0601 45.1861 92.127 45.2007 92.1947 45.2007H95.6131C95.8618 45.2007 96.0737 45.02 96.1126 44.7748L98.9952 26.5392C99.0056 26.4727 99.0016 26.4047 98.9832 26.3398C98.9648 26.275 98.9326 26.2149 98.8887 26.1637C98.8449 26.1125 98.7904 26.0713 98.7291 26.0431C98.6678 26.0148 98.6011 26.0001 98.5336 26H95.1151Z" fill="#0070E0"/>
</svg>
