<svg width="13" height="13" viewBox="0 0 13 13" fill="none" xmlns="http://www.w3.org/2000/svg">
<path d="M12.728 1.58517C13.0907 1.22254 13.0907 0.634602 12.728 0.271972C12.3654 -0.0906574 11.7775 -0.0906574 11.4148 0.271972L6.5 5.1868L1.58517 0.271972C1.22254 -0.0906574 0.634602 -0.0906574 0.271972 0.271972C-0.0906574 0.634602 -0.0906574 1.22254 0.271972 1.58517L5.1868 6.5L0.271972 11.4148C-0.0906574 11.7775 -0.0906574 12.3654 0.271972 12.728C0.634602 13.0907 1.22254 13.0907 1.58517 12.728L6.5 7.8132L11.4148 12.728C11.7775 13.0907 12.3654 13.0907 12.728 12.728C13.0907 12.3654 13.0907 11.7775 12.728 11.4148L7.8132 6.5L12.728 1.58517Z" fill="#201D1D"/>
</svg>
