<svg width="112" height="76" viewBox="0 0 112 76" fill="none" xmlns="http://www.w3.org/2000/svg">
<rect x="0.5" y="0.5" width="111" height="75" rx="14.5" stroke="#E3E3E3"/>
<g clip-path="url(#clip0_860_3433)">
<path d="M82.3946 30.2779V39.0793H79.2825V32.9053H76.2859V39.0793H73.1738V30.2773H82.3946V30.2779Z" fill="black"/>
<path fill-rule="evenodd" clip-rule="evenodd" d="M66.7815 39.3903C69.5674 39.3903 71.6362 37.6653 71.6362 35.0502C71.6362 32.5191 70.1099 30.8757 67.5589 30.8757C66.3816 30.8757 65.4102 31.2942 64.6785 32.0163C64.8532 30.5238 66.103 29.4342 67.479 29.4342C67.7966 29.4342 70.1874 29.4291 70.1874 29.4291L71.5394 26.8164C71.5394 26.8164 68.5378 26.8854 67.1424 26.8854C63.9543 26.9415 61.8008 29.868 61.8008 33.4224C61.8008 37.5633 63.9011 39.3903 66.7815 39.3903ZM66.7984 33.1899C67.8328 33.1899 68.5499 33.8763 68.5499 35.0499C68.5499 36.1062 67.9127 36.9765 66.7984 36.9789C65.7325 36.9789 65.0154 36.1725 65.0154 35.0679C65.0154 33.894 65.7325 33.1899 66.7984 33.1899Z" fill="black"/>
<path d="M59.2686 36.1309C59.2686 36.1309 58.5336 36.5587 57.4359 36.6397C56.174 36.6775 55.0496 35.8726 55.0496 34.4425C55.0496 33.0475 56.0418 32.248 57.4042 32.248C58.2395 32.248 59.3446 32.8327 59.3446 32.8327C59.3446 32.8327 60.1533 31.3342 60.5721 30.5848C59.8051 29.9977 58.7835 29.6758 57.5952 29.6758C54.5962 29.6758 52.2734 31.6504 52.2734 34.4248C52.2734 37.2346 54.4566 39.1633 57.5952 39.1051C58.4724 39.0721 59.6827 38.761 60.4203 38.2825L59.2686 36.1309Z" fill="black"/>
<path d="M21 27.8359L25.317 35.6284V40.3816L21.0051 48.1588L21 27.8359Z" fill="#5B57A2"/>
<path d="M37.5762 32.7929L41.6214 30.2891L49.9002 30.2812L37.5762 37.9055V32.7929Z" fill="#D90751"/>
<path d="M37.5523 27.7901L37.5752 38.1071L33.248 35.4221V20L37.5523 27.7901Z" fill="#FAB718"/>
<path d="M49.8992 30.2813L41.6201 30.2891L37.5523 27.7901L33.248 20L49.8992 30.2813Z" fill="#ED6F26"/>
<path d="M37.5752 48.202V43.1965L33.248 40.5625L33.2504 55.9999L37.5752 48.202Z" fill="#63B22F"/>
<path d="M41.6108 45.721L25.3167 35.6284L21 27.8359L49.8821 45.7108L41.6108 45.721Z" fill="#1487C9"/>
<path d="M33.252 56L37.5761 48.2021L41.6112 45.7211L49.8826 45.7109L33.252 56Z" fill="#017F36"/>
<path d="M21.0059 48.1577L33.2847 40.5617L29.1566 38.0039L25.3178 40.3805L21.0059 48.1577Z" fill="#984995"/>
<path d="M55.0494 45.0003C54.9544 45.1227 54.8293 45.2151 54.6793 45.2775C54.5254 45.3408 54.3607 45.373 54.1945 45.3723C54.0292 45.3746 53.8649 45.3467 53.7094 45.2901C53.5697 45.2389 53.442 45.159 53.3345 45.0555C53.2282 44.9518 53.1448 44.8267 53.0897 44.6883C53.03 44.5367 53.0002 44.3748 53.002 44.2116C53.002 44.0496 53.0297 43.8996 53.087 43.7574C53.142 43.6149 53.2219 43.4928 53.322 43.3902C53.4221 43.2855 53.5421 43.2057 53.677 43.1433C53.8145 43.0833 53.9645 43.0509 54.1294 43.0509C54.3071 43.0509 54.4719 43.0734 54.622 43.1181C54.772 43.1631 54.8994 43.2381 55.0043 43.3431L54.8219 43.6551C54.7337 43.5744 54.6298 43.5131 54.5168 43.4751C54.4094 43.4402 54.2972 43.4226 54.1844 43.4229C54.0846 43.4229 53.9895 43.4427 53.8971 43.4802C53.8061 43.5172 53.7229 43.5715 53.652 43.6401C53.5796 43.7107 53.5225 43.7957 53.4845 43.8897C53.442 43.9869 53.4221 44.0943 53.4221 44.214C53.4221 44.3364 53.4444 44.4462 53.4869 44.541C53.5296 44.6385 53.587 44.721 53.6595 44.7906C53.7319 44.8608 53.8169 44.913 53.9143 44.9481C54.0121 44.9856 54.1146 45.003 54.2245 45.003C54.3593 45.003 54.482 44.9754 54.5869 44.9229C54.6908 44.8722 54.7842 44.802 54.862 44.7159L55.0494 45.0003ZM55.5643 45.3198V43.0983H55.9594V44.7534L57.2442 43.0983H57.6393V45.3201H57.2442V43.665L55.9594 45.3201L55.5643 45.3198ZM60.2565 45.0003C60.1593 45.1237 60.0318 45.2193 59.8867 45.2775C59.7326 45.3408 59.5678 45.373 59.4015 45.3723C59.2364 45.3746 59.0721 45.3467 58.9167 45.2901C58.777 45.2389 58.6492 45.159 58.5415 45.0555C58.4353 44.9518 58.3519 44.8267 58.2967 44.6883C58.237 44.5367 58.2073 44.3748 58.2091 44.2116C58.2091 44.0496 58.2367 43.8996 58.2941 43.7574C58.3493 43.6149 58.4292 43.4928 58.529 43.3902C58.6292 43.2855 58.7492 43.2057 58.884 43.1433C59.0265 43.08 59.1808 43.0484 59.3365 43.0509C59.5141 43.0509 59.679 43.0734 59.829 43.1181C59.979 43.1631 60.1065 43.2381 60.2117 43.3431L60.029 43.6551C59.9409 43.5743 59.8371 43.513 59.7242 43.4751C59.6168 43.4402 59.5046 43.4226 59.3917 43.4229C59.1932 43.4236 59.0024 43.5013 58.8591 43.6401C58.7873 43.7112 58.7303 43.7961 58.6915 43.8897C58.6491 43.9869 58.6292 44.0943 58.6292 44.214C58.6292 44.3364 58.6517 44.4462 58.6942 44.541C58.7367 44.6385 58.794 44.721 58.8665 44.7906C58.939 44.8608 59.0243 44.913 59.1217 44.9481C59.2191 44.9829 59.3216 45.003 59.4315 45.003C59.5667 45.003 59.6867 44.9754 59.794 44.9229C59.8979 44.8722 59.9913 44.802 60.0691 44.7159L60.2565 45.0003ZM60.4591 43.0983H62.4863V43.4928H61.6715V45.3198H61.2764V43.4928H60.4615V43.0983H60.4591Z" fill="black"/>
<path fill-rule="evenodd" clip-rule="evenodd" d="M64.3313 45.2999C64.4813 45.2525 64.6088 45.1799 64.7187 45.0803L64.5987 44.7707C64.5262 44.8358 64.4287 44.8907 64.3114 44.9357C64.1938 44.9807 64.0613 45.0029 63.9163 45.0029C63.6988 45.0029 63.5188 44.9456 63.3762 44.8283C63.2339 44.7107 63.1564 44.5463 63.1389 44.3363H64.8488C64.8663 44.2589 64.8738 44.1716 64.8738 44.0693C64.8738 43.9169 64.8461 43.7798 64.7912 43.655C64.74 43.5338 64.6653 43.4242 64.5713 43.3328C64.4761 43.2422 64.3639 43.1718 64.2413 43.1258C64.113 43.0755 63.9764 43.0501 63.8388 43.0508C63.6537 43.0508 63.4912 43.0832 63.3489 43.1432C63.2144 43.2004 63.0927 43.2844 62.9912 43.3904C62.8927 43.4958 62.817 43.6207 62.769 43.7573C62.7162 43.9027 62.6899 44.0566 62.6915 44.2115C62.6915 44.3864 62.7215 44.546 62.7764 44.6885C62.8299 44.8265 62.9117 44.9516 63.0165 45.0554C63.119 45.1574 63.2437 45.2351 63.3914 45.29C63.5494 45.3466 63.7162 45.3744 63.8839 45.3722C64.0358 45.3713 64.1867 45.3467 64.3313 45.2999ZM63.3314 43.5899C63.4538 43.4777 63.6163 43.4228 63.8212 43.4228C64.0137 43.4228 64.1688 43.4753 64.2814 43.5803C64.394 43.685 64.4537 43.8299 64.4638 44.0144H63.1139C63.133 43.851 63.2103 43.7 63.3314 43.5899Z" fill="black"/>
<path d="M65.4121 43.0977H65.7722L66.6271 44.1987L67.4369 43.0977H67.7869V45.3195H67.3921V43.6995L66.6221 44.7303H66.6069L65.8072 43.6992V45.3192H65.4121V43.0977Z" fill="black"/>
<path fill-rule="evenodd" clip-rule="evenodd" d="M68.8621 43.1055C68.7422 43.1371 68.6277 43.1867 68.5223 43.2525L68.6271 43.5675C68.7171 43.5225 68.8071 43.485 68.8972 43.4526C68.9872 43.4199 69.1021 43.4049 69.2397 43.4049C69.3496 43.4049 69.4372 43.4226 69.5047 43.4574C69.5721 43.4898 69.622 43.5399 69.6571 43.5999C69.6921 43.6599 69.7147 43.7346 69.7272 43.8219C69.7397 43.9092 69.7447 44.004 69.7447 44.1066C69.6639 44.0497 69.5717 44.0113 69.4747 43.9941C69.3808 43.9753 69.2855 43.9652 69.1898 43.9641C69.0721 43.9641 68.9622 43.9818 68.8571 44.0115C68.7522 44.0415 68.6622 44.0865 68.5897 44.1465C68.5157 44.2064 68.4559 44.2822 68.4147 44.3685C68.3707 44.4629 68.3484 44.5662 68.3497 44.6706C68.3497 44.8878 68.4123 45.0576 68.5371 45.1776C68.6622 45.2973 68.827 45.357 69.032 45.357C69.2171 45.357 69.3647 45.3246 69.477 45.2598C69.5896 45.1947 69.6796 45.12 69.7447 45.0351V45.3222H70.1146V43.9593C70.1146 43.6695 70.0522 43.4451 69.9247 43.2876C69.7997 43.1304 69.5772 43.0506 69.2623 43.0506C69.122 43.0506 68.9896 43.0704 68.8621 43.1055ZM69.5225 44.9055C69.4325 44.9703 69.3148 45 69.1699 45C69.0424 45 68.9423 44.9676 68.8725 44.9052C68.8024 44.8404 68.7673 44.7555 68.7673 44.6505C68.7673 44.5884 68.7798 44.5359 68.8074 44.4885C68.8351 44.4411 68.8725 44.4036 68.915 44.3736C68.9615 44.3422 69.013 44.3194 69.0674 44.3061C69.125 44.2911 69.1823 44.2836 69.2424 44.2836C69.4375 44.2836 69.6048 44.331 69.7423 44.4309V44.7129C69.6775 44.7862 69.6036 44.8512 69.5225 44.9055ZM73.6022 42.3165C73.6821 42.2793 73.7569 42.2169 73.8271 42.1245L73.612 41.8125C73.557 41.8875 73.4946 41.9397 73.4245 41.9673C73.3502 41.9966 73.2732 42.0183 73.1946 42.0321L73.1197 42.0456C73.0547 42.057 72.9849 42.0696 72.9097 42.0822C72.7892 42.1047 72.6717 42.1416 72.5597 42.192C72.3821 42.2694 72.2398 42.3741 72.1323 42.5064C72.0247 42.6387 71.9398 42.7884 71.8821 42.9534C71.8238 43.1206 71.7844 43.2939 71.7648 43.47C71.7446 43.65 71.7348 43.8219 71.7348 43.9866C71.7348 44.199 71.7621 44.391 71.8171 44.5632C71.8723 44.7357 71.9496 44.8803 72.0521 44.9976C72.1545 45.1176 72.2772 45.2076 72.4222 45.2724C72.5672 45.3372 72.7297 45.3696 72.9121 45.3696C73.0796 45.3696 73.2347 45.3372 73.3746 45.2772C73.5095 45.2195 73.6318 45.1357 73.7347 45.0303C73.8345 44.9277 73.9147 44.8053 73.9696 44.6682C74.027 44.5308 74.0546 44.3835 74.0546 44.2287C74.0546 44.0616 74.0297 43.9095 73.9821 43.7745C73.9384 43.6458 73.8685 43.5277 73.7771 43.4277C73.6856 43.3294 73.5737 43.2526 73.4495 43.2027C73.3127 43.1483 73.1667 43.1212 73.0196 43.1229C72.9246 43.1229 72.8322 43.1355 72.7421 43.1604C72.6546 43.1853 72.5705 43.2214 72.492 43.2678C72.4158 43.3119 72.346 43.3664 72.2847 43.4298C72.2247 43.4925 72.1747 43.5624 72.1397 43.6422H72.1296C72.1373 43.5399 72.1498 43.4352 72.1721 43.3278C72.1946 43.2204 72.227 43.1178 72.2698 43.0206C72.3123 42.9234 72.3672 42.8358 72.4347 42.756C72.507 42.6754 72.5957 42.6116 72.6946 42.5688C72.8035 42.5165 72.9186 42.4787 73.0371 42.4566L73.1156 42.4422C73.1937 42.4278 73.2683 42.414 73.3396 42.399C73.4346 42.3792 73.522 42.3537 73.6022 42.3165ZM72.2122 44.451C72.1735 44.325 72.155 44.1935 72.1572 44.0616C72.174 43.9859 72.2045 43.914 72.2472 43.8495C72.2897 43.782 72.3447 43.7223 72.4097 43.6695C72.5565 43.5533 72.738 43.4909 72.9246 43.4925C73.1572 43.4925 73.3321 43.5648 73.4545 43.7073C73.5772 43.8519 73.6372 44.0316 73.6372 44.2488C73.6372 44.3562 73.617 44.4537 73.5823 44.5434C73.5485 44.6319 73.4974 44.7126 73.4322 44.7808C73.3669 44.849 73.2887 44.9032 73.2023 44.9403C73.1123 44.9802 73.0146 45.0003 72.9046 45.0003C72.7947 45.0003 72.6946 44.9778 72.6022 44.9328C72.5104 44.8887 72.4293 44.8248 72.3646 44.7456C72.2968 44.6573 72.2452 44.5576 72.2122 44.451ZM77.0844 43.098H76.6893V45.3198H77.0844V43.098ZM74.6244 43.098H75.0195V43.7646H75.3846C75.5569 43.7646 75.6968 43.7871 75.8094 43.8294C75.922 43.872 76.012 43.9293 76.0794 43.9992C76.1469 44.0691 76.1944 44.1516 76.222 44.2437C76.2494 44.3361 76.2645 44.4309 76.2645 44.5308C76.2645 44.6307 76.2494 44.7258 76.217 44.8206C76.187 44.9154 76.1344 44.9976 76.0643 45.0726C75.9945 45.1476 75.8994 45.2076 75.7794 45.2526C75.6594 45.2973 75.5144 45.3222 75.3394 45.3222H74.622V43.098H74.6244ZM75.0195 44.1363V44.9502H75.3071C75.5046 44.9502 75.6445 44.9154 75.7244 44.8452C75.8047 44.7753 75.8445 44.6757 75.8445 44.5434C75.8445 44.4084 75.802 44.3064 75.7221 44.2362C75.6395 44.1663 75.5019 44.1312 75.3121 44.1312H75.0195V44.1363Z" fill="black"/>
<path d="M79.6959 45.0003C79.6009 45.1227 79.4758 45.2151 79.3258 45.2775C79.1718 45.3408 79.0071 45.373 78.841 45.3723C78.6757 45.3746 78.5113 45.3467 78.3558 45.2901C78.2161 45.239 78.0885 45.1591 77.9809 45.0555C77.8747 44.9518 77.7912 44.8267 77.7359 44.6883C77.6764 44.5366 77.6467 44.3747 77.6485 44.2116C77.6485 44.0496 77.6758 43.8996 77.7335 43.7574C77.7884 43.6149 77.8683 43.4928 77.9685 43.3902C78.0686 43.2855 78.1883 43.2057 78.3235 43.1433C78.4659 43.0799 78.6203 43.0484 78.7759 43.0509C78.9533 43.0509 79.1184 43.0734 79.2684 43.1181C79.4185 43.1631 79.5459 43.2381 79.6508 43.3431L79.4684 43.6551C79.3802 43.5744 79.2763 43.5131 79.1633 43.4751C79.0559 43.4402 78.9437 43.4226 78.8309 43.4229C78.731 43.4229 78.636 43.4427 78.5433 43.4802C78.4523 43.5173 78.3693 43.5715 78.2985 43.6401C78.2266 43.7111 78.1696 43.796 78.131 43.8897C78.0885 43.9869 78.0686 44.0943 78.0686 44.214C78.0686 44.3364 78.0909 44.4462 78.1333 44.541C78.1758 44.6385 78.2334 44.721 78.3059 44.7906C78.3784 44.8608 78.4634 44.913 78.5608 44.9481C78.6586 44.9829 78.761 45.003 78.871 45.003C79.0058 45.003 79.1258 44.9754 79.2334 44.9229C79.3373 44.8722 79.4307 44.802 79.5085 44.7159L79.6959 45.0003ZM79.8982 43.0983H81.9257V43.4928H81.1106V45.3198H80.7158V43.4928H79.9009V43.0983H79.8982Z" fill="black"/>
<path fill-rule="evenodd" clip-rule="evenodd" d="M82.7506 43.101H82.3555V46.311H82.7506V45.2202C82.8305 45.2727 82.9255 45.3102 83.0355 45.3351C83.1454 45.36 83.2603 45.3723 83.378 45.3723C83.553 45.3723 83.7104 45.3399 83.853 45.2802C83.9898 45.2212 84.1137 45.1355 84.2178 45.0282C84.3203 44.9205 84.3978 44.7957 84.4528 44.6484C84.5078 44.5014 84.5354 44.3439 84.5354 44.1768C84.5354 44.0118 84.5104 43.8597 84.4629 43.7223C84.4181 43.5919 84.3485 43.4715 84.2579 43.368C84.169 43.2671 84.0587 43.1878 83.9353 43.1358C83.8004 43.0773 83.6547 43.0483 83.5078 43.0509C83.353 43.0509 83.2081 43.0809 83.0705 43.1409C82.933 43.2009 82.8254 43.2729 82.7506 43.3629V43.101ZM83.0257 43.5129C83.1383 43.4529 83.2606 43.4229 83.3931 43.4229C83.5081 43.4229 83.6106 43.4403 83.7033 43.4778C83.7933 43.5153 83.8682 43.5678 83.9308 43.6377C83.9932 43.7076 84.0408 43.7877 84.0708 43.8822C84.1031 43.977 84.1183 44.0796 84.1183 44.1918C84.1183 44.3118 84.0981 44.4189 84.0633 44.5188C84.0306 44.6136 83.9786 44.7003 83.9106 44.7735C83.8424 44.8459 83.7598 44.9028 83.6682 44.9406C83.5661 44.9838 83.4563 45.0051 83.3456 45.003C83.2384 45.003 83.1383 44.9907 83.0432 44.9658C82.9391 44.9372 82.8404 44.8916 82.7509 44.8308V43.7298C82.8207 43.6452 82.9134 43.5729 83.0257 43.5129ZM87.5652 43.1007H87.1701V45.3225H87.5652V43.1007ZM85.1028 43.1007H85.4979V43.7673H85.8627C86.0353 43.7673 86.1752 43.7898 86.2878 43.8321C86.4004 43.8747 86.4904 43.932 86.5578 44.0019C86.6253 44.0718 86.6728 44.1543 86.7001 44.2464C86.7278 44.3388 86.7426 44.4336 86.7426 44.5335C86.7426 44.6334 86.7278 44.7285 86.6954 44.8233C86.6654 44.9181 86.6128 45.0003 86.5427 45.0753C86.4729 45.1503 86.3778 45.2103 86.2578 45.2553C86.1378 45.3 85.9928 45.3249 85.8178 45.3249H85.1004V43.1007H85.1028ZM85.5006 44.139V44.9529H85.7881C85.9854 44.9529 86.1256 44.9181 86.2055 44.8479C86.2854 44.778 86.3255 44.6784 86.3255 44.5461C86.3255 44.4111 86.283 44.3091 86.2031 44.2389C86.1206 44.169 85.983 44.1339 85.7932 44.1339H85.5006V44.139Z" fill="black"/>
<path d="M89.4608 44.1687L90.3057 45.3195H89.8209L89.1682 44.4207L88.5057 45.3195H88.0459L88.8857 44.1885L88.0958 43.0977H88.5809L89.1833 43.9365L89.7956 43.0977H90.2558L89.4608 44.1687ZM54.7578 48.0654H53.5455V49.9176H53.1504V47.6961H55.1527V49.9176H54.7578V48.0654ZM57.3949 48.0903H56.6151L56.5899 48.4647C56.5626 48.7818 56.5251 49.0365 56.4725 49.2309C56.42 49.4259 56.3549 49.5756 56.28 49.6803C56.2052 49.7853 56.1175 49.8576 56.0174 49.8927C55.9142 49.9305 55.8049 49.9491 55.6951 49.9476L55.6651 49.563C55.7076 49.5654 55.7575 49.5555 55.8124 49.5306C55.8677 49.5057 55.9227 49.4508 55.9749 49.3686C56.0275 49.2834 56.0751 49.1637 56.1175 49.0089C56.16 48.8517 56.1876 48.6471 56.2025 48.3897L56.2426 47.6982H57.79V49.92H57.3949V48.0903Z" fill="black"/>
<path fill-rule="evenodd" clip-rule="evenodd" d="M58.8543 47.7033C58.7266 47.7381 58.6116 47.7879 58.5142 47.8503L58.6193 48.165C58.7093 48.12 58.7993 48.0825 58.8891 48.0501C58.9791 48.0177 59.0943 48.0027 59.2316 48.0027C59.3418 48.0027 59.4291 48.0201 59.4966 48.0549C59.5643 48.0876 59.6142 48.1374 59.6493 48.1974C59.684 48.2574 59.7066 48.3324 59.7191 48.4194C59.7315 48.507 59.7366 48.6018 59.7366 48.7041C59.6558 48.6473 59.5636 48.609 59.4666 48.5919C59.3727 48.5731 59.2774 48.563 59.1817 48.5619C59.0643 48.5619 58.9541 48.5793 58.8492 48.6093C58.7441 48.6393 58.6541 48.6843 58.5816 48.7443C58.5076 48.8042 58.4478 48.8801 58.4066 48.9663C58.3627 49.0608 58.3405 49.1641 58.3419 49.2684C58.3419 49.4853 58.4042 49.6554 58.5293 49.7751C58.6541 49.8948 58.8192 49.9548 59.0242 49.9548C59.2093 49.9548 59.3566 49.9224 59.4692 49.8573C59.5815 49.7925 59.6715 49.7175 59.7366 49.6326V49.9197H60.1068V48.5568C60.1068 48.2673 60.0441 48.0426 59.9166 47.8854C59.7916 47.7279 59.5691 47.6484 59.2542 47.6484C59.1191 47.6486 58.9846 47.6672 58.8543 47.7033ZM59.5168 49.5027C59.4271 49.5678 59.3094 49.5978 59.1644 49.5978C59.0343 49.5978 58.9369 49.5654 58.8671 49.5027C58.797 49.4379 58.7619 49.353 58.7619 49.2483C58.7619 49.1859 58.7744 49.1334 58.802 49.086C58.8293 49.0386 58.8671 49.0011 58.9096 48.9711C58.952 48.9411 59.0043 48.9186 59.062 48.9036C59.1191 48.8887 59.1779 48.8813 59.2369 48.8814C59.4318 48.8814 59.5994 48.9288 59.7369 49.0284V49.3104C59.672 49.3838 59.598 49.4484 59.5168 49.5027Z" fill="black"/>
<path d="M60.4941 47.6992H62.5217V48.0934H61.7065V49.9207H61.3117V48.0937H60.4968V47.6992H60.4941Z" fill="black"/>
<path fill-rule="evenodd" clip-rule="evenodd" d="M64.3667 49.8973C64.5168 49.8499 64.6442 49.7773 64.7541 49.6777L64.6341 49.3681C64.5616 49.4332 64.4642 49.4881 64.3465 49.5331C64.2292 49.5781 64.0967 49.6003 63.9517 49.6003C63.7343 49.6003 63.5543 49.543 63.4117 49.4257C63.2691 49.3084 63.1918 49.1437 63.1743 48.9337H64.8842C64.9015 48.8566 64.9092 48.769 64.9092 48.6667C64.9092 48.5146 64.8816 48.3772 64.8266 48.2524C64.7754 48.1312 64.7006 48.0218 64.6065 47.9305C64.5115 47.8398 64.3993 47.7693 64.2767 47.7232C64.1484 47.6729 64.0118 47.6475 63.8742 47.6482C63.6891 47.6482 63.5266 47.6806 63.3843 47.7406C63.2497 47.7976 63.128 47.8817 63.0267 47.9878C62.9282 48.0932 62.8524 48.2182 62.8042 48.3547C62.7515 48.5002 62.7252 48.654 62.7266 48.8089C62.7266 48.9838 62.7566 49.1434 62.8116 49.2859C62.8668 49.4281 62.9491 49.5505 63.0516 49.6528C63.1541 49.7551 63.2792 49.8325 63.4268 49.8874C63.5848 49.9441 63.7514 49.972 63.9191 49.9699C64.0667 49.9699 64.2167 49.9447 64.3667 49.8973ZM63.3644 48.1849C63.4868 48.0727 63.6493 48.0178 63.8543 48.0178C64.0495 48.0178 64.2019 48.0727 64.3145 48.175C64.4268 48.28 64.4868 48.4246 64.4969 48.6094H63.147C63.166 48.4459 63.2433 48.2951 63.3644 48.1849ZM65.1017 47.6983H65.6017L66.364 48.7693L65.5491 49.9198H65.0643L65.9189 48.769L65.1017 47.6983ZM66.4614 47.6983H66.8565V49.9198H66.4614V47.6983ZM68.2688 49.9198L67.3989 48.769L68.2114 47.698H67.7213L66.9539 48.769L67.7789 49.9198H68.2688ZM70.0738 49.8973C70.2238 49.8499 70.3512 49.7773 70.4612 49.6777L70.3411 49.3681C70.2687 49.4332 70.1712 49.4881 70.0539 49.5331C69.9362 49.5781 69.8037 49.6003 69.6588 49.6003C69.4413 49.6003 69.2613 49.543 69.1187 49.4257C68.9764 49.3084 68.8989 49.1437 68.8813 48.9337H70.5913C70.6088 48.8566 70.6162 48.769 70.6162 48.6667C70.6162 48.5146 70.5889 48.3772 70.5336 48.2524C70.4825 48.1313 70.4077 48.0218 70.3138 47.9305C70.2187 47.8397 70.1064 47.7692 69.9838 47.7232C69.8554 47.6729 69.7189 47.6475 69.5812 47.6482C69.3965 47.6482 69.234 47.6806 69.0914 47.7406C68.9569 47.7977 68.8353 47.8818 68.734 47.9878C68.6353 48.0931 68.5595 48.2181 68.5115 48.3547C68.4587 48.5001 68.4324 48.654 68.4339 48.8089C68.4339 48.9838 68.464 49.1434 68.5189 49.2859C68.5739 49.4281 68.6565 49.5505 68.7589 49.6528C68.8614 49.7551 68.9862 49.8325 69.1338 49.8874C69.2919 49.9441 69.4587 49.972 69.6264 49.9699C69.7783 49.9688 69.9292 49.9443 70.0738 49.8973ZM69.0715 48.1849C69.1942 48.0727 69.3566 48.0178 69.5616 48.0178C69.7541 48.0178 69.9089 48.0727 70.0215 48.175C70.1341 48.28 70.1941 48.4246 70.2039 48.6094H68.854C68.8731 48.4459 68.9504 48.2951 69.0715 48.1849ZM72.2189 46.9519C71.9863 46.9519 71.8589 46.822 71.839 46.5625H71.4664C71.4664 46.6621 71.484 46.7521 71.5164 46.837C71.549 46.9219 71.5966 46.9942 71.659 47.0542C71.7213 47.1142 71.8015 47.1616 71.8939 47.1988C71.9863 47.2363 72.0939 47.2537 72.2163 47.2537C72.3288 47.2537 72.429 47.2363 72.519 47.1988C72.609 47.164 72.6838 47.1142 72.7489 47.0542C72.8113 46.9942 72.8615 46.9219 72.8963 46.837C72.9313 46.7521 72.9488 46.6621 72.9488 46.5625H72.579C72.5615 46.822 72.4388 46.9519 72.2189 46.9519ZM71.1513 47.698V49.9198H71.5464L72.8312 48.2647V49.9198H73.2263V47.698H72.8312L71.5464 49.3531V47.698H71.1513Z" fill="black"/>
</g>
<defs>
<clipPath id="clip0_860_3433">
<rect width="71" height="36" fill="white" transform="translate(21 20)"/>
</clipPath>
</defs>
</svg>
