<svg width="24" height="24" viewBox="0 0 24 24" fill="none" xmlns="http://www.w3.org/2000/svg">
<path fill-rule="evenodd" clip-rule="evenodd" d="M6.69849 6.08954C6.94345 3.23733 9.2957 1 12.1613 1C15.0269 1 17.3791 3.23733 17.6241 6.08954L17.9541 6.08954C18.4728 6.08953 18.9203 6.08951 19.2887 6.12065C19.6776 6.15353 20.0642 6.22614 20.4351 6.42226C20.9653 6.70264 21.3977 7.14274 21.6731 7.68249C21.8658 8.06003 21.9371 8.45354 21.9694 8.84943C22 9.2244 22 9.67987 22 10.2079V15.7139C22 16.7995 22 17.6751 21.9422 18.3838C21.8827 19.1135 21.7568 19.754 21.4552 20.3451C20.9962 21.2447 20.2756 21.9782 19.3918 22.4455C18.8112 22.7525 18.1819 22.8806 17.465 22.9412C16.7688 23 15.9087 23 14.8422 23H9.15789C8.09144 23 7.23117 23 6.535 22.9412C5.81808 22.8806 5.18884 22.7525 4.60819 22.4455C3.72443 21.9782 3.00385 21.2447 2.54478 20.3451C2.24315 19.754 2.11734 19.1135 2.0578 18.3838C1.99998 17.6751 1.99999 16.7995 2 15.7139L2 10.2079C1.99998 9.67992 1.99997 9.22442 2.03056 8.84943C2.06286 8.45354 2.1342 8.06003 2.32687 7.68249C2.60231 7.14274 3.03466 6.70264 3.56491 6.42226C3.93582 6.22614 4.3224 6.15353 4.71132 6.12065C5.07971 6.08951 5.5272 6.08953 6.04593 6.08954L6.69849 6.08954ZM8.64563 6.08954C8.88163 4.32773 10.3657 2.97015 12.1613 2.97015C13.9569 2.97015 15.441 4.32773 15.677 6.08954H8.64563ZM4.45712 8.1706C4.50571 8.14491 4.60443 8.10662 4.87151 8.08404C5.15016 8.06049 5.51651 8.05969 6.08387 8.05969H17.9161C18.4835 8.05969 18.8498 8.06049 19.1285 8.08404C19.3956 8.10662 19.4943 8.14491 19.5429 8.1706C19.7196 8.26406 19.8637 8.41076 19.9556 8.59067C19.9808 8.64014 20.0184 8.74063 20.0406 9.01248C20.0637 9.29613 20.0645 9.66904 20.0645 10.2466V15.671C20.0645 16.8096 20.0637 17.6032 20.0134 18.2207C19.9639 18.8265 19.8718 19.1739 19.7377 19.4369C19.4622 19.9767 19.0299 20.4168 18.4996 20.6971C18.2413 20.8337 17.8999 20.9275 17.3048 20.9778C16.6982 21.0291 15.9185 21.0299 14.8 21.0299H9.2C8.08152 21.0299 7.30183 21.0291 6.69518 20.9778C6.10011 20.9275 5.75874 20.8337 5.5004 20.6971C4.97014 20.4168 4.5378 19.9767 4.26235 19.4369C4.12815 19.1739 4.03606 18.8265 3.98664 18.2207C3.93626 17.6032 3.93549 16.8096 3.93549 15.671V10.2466C3.93549 9.66904 3.93626 9.29613 3.9594 9.01248C3.98158 8.74063 4.0192 8.64014 4.04444 8.59067C4.13626 8.41076 4.28037 8.26406 4.45712 8.1706Z" fill="white"/>
</svg>
